#include "hUGEDriver/hUGEDriver.h"
#include <stddef.h>

static const unsigned char order_cnt = 40;

static const unsigned char P0[] = {
    DN(E_3,2,0x940),
    DN(___,0,0x980),
    DN(___,0,0x9C0),
    DN(___,0,0x980),
    DN(___,0,0x940),
    DN(___,0,0x980),
    DN(___,0,0x9C0),
    DN(___,0,0x980),
    DN(___,0,0x940),
    DN(___,0,0x980),
    DN(E_3,2,0x9C0),
    DN(___,0,0x980),
    DN(___,0,0x940),
    DN(___,0,0x980),
    DN(___,0,0x9C0),
    DN(___,0,0x980),
    DN(E_4,2,0x940),
    DN(___,0,0x980),
    DN(___,0,0x9C0),
    DN(___,0,0x980),
    DN(___,0,0x940),
    DN(___,0,0x980),
    DN(E_4,2,0x9C0),
    DN(___,0,0x980),
    DN(C_3,2,0x940),
    DN(___,0,0x980),
    DN(___,0,0x9C0),
    DN(___,0,0x980),
    DN(___,0,0x940),
    DN(___,0,0x980),
    DN(___,0,0x9C0),
    DN(___,0,0x980),
    DN(___,0,0x940),
    DN(___,0,0x980),
    DN(C_3,2,0x9C0),
    DN(___,0,0x980),
    DN(___,0,0x940),
    DN(___,0,0x980),
    DN(___,0,0x9C0),
    DN(___,0,0x980),
    DN(C_4,2,0x940),
    DN(___,0,0x980),
    DN(___,0,0x9C0),
    DN(___,0,0x980),
    DN(___,0,0x940),
    DN(___,0,0x980),
    DN(C_4,2,0x9C0),
    DN(___,0,0x980),
    DN(___,0,0x000),
    DN(___,0,0x000),
    DN(___,0,0x000),
    DN(___,0,0x000),
    DN(___,0,0x000),
    DN(___,0,0x000),
    DN(___,0,0x000),
    DN(___,0,0x000),
    DN(___,0,0x000),
    DN(___,0,0x000),
    DN(___,0,0x000),
    DN(___,0,0x000),
    DN(___,0,0x000),
    DN(___,0,0x000),
    DN(___,0,0x000),
    DN(___,0,0x000),
};
static const unsigned char P1[] = {
    DN(___,0,0x000),
    DN(___,0,0x000),
    DN(___,0,0x000),
    DN(___,0,0x000),
    DN(___,0,0x000),
    DN(___,0,0x000),
    DN(___,0,0x000),
    DN(___,0,0x000),
    DN(___,0,0x000),
    DN(___,0,0x000),
    DN(___,0,0x000),
    DN(___,0,0x000),
    DN(___,0,0x000),
    DN(___,0,0x000),
    DN(___,0,0x000),
    DN(___,0,0x000),
    DN(___,0,0x000),
    DN(___,0,0x000),
    DN(___,0,0x000),
    DN(___,0,0x000),
    DN(___,0,0x000),
    DN(___,0,0x000),
    DN(___,0,0x000),
    DN(___,0,0x000),
    DN(___,0,0x000),
    DN(___,0,0x000),
    DN(___,0,0x000),
    DN(___,0,0x000),
    DN(___,0,0x000),
    DN(___,0,0x000),
    DN(___,0,0x000),
    DN(___,0,0x000),
    DN(___,0,0x000),
    DN(___,0,0x000),
    DN(___,0,0x000),
    DN(___,0,0x000),
    DN(___,0,0x000),
    DN(___,0,0x000),
    DN(___,0,0x000),
    DN(___,0,0x000),
    DN(___,0,0x000),
    DN(___,0,0x000),
    DN(___,0,0x000),
    DN(___,0,0x000),
    DN(___,0,0x000),
    DN(___,0,0x000),
    DN(___,0,0x000),
    DN(___,0,0x000),
    DN(___,0,0x000),
    DN(___,0,0x000),
    DN(___,0,0x000),
    DN(___,0,0x000),
    DN(___,0,0x000),
    DN(___,0,0x000),
    DN(___,0,0x000),
    DN(___,0,0x000),
    DN(___,0,0x000),
    DN(___,0,0x000),
    DN(___,0,0x000),
    DN(___,0,0x000),
    DN(___,0,0x000),
    DN(___,0,0x000),
    DN(___,0,0x000),
    DN(___,0,0x000),
};
static const unsigned char P3[] = {
    DN(C_7,1,0x000),
    DN(___,0,0x000),
    DN(___,0,0x000),
    DN(___,0,0x000),
    DN(C_8,2,0x000),
    DN(___,0,0x000),
    DN(D_7,3,0x000),
    DN(___,0,0x000),
    DN(___,0,0x000),
    DN(___,0,0x000),
    DN(C_8,2,0x000),
    DN(___,0,0x000),
    DN(C_7,1,0x000),
    DN(___,0,0x000),
    DN(___,0,0x000),
    DN(___,0,0x000),
    DN(C_7,1,0x000),
    DN(___,0,0x000),
    DN(D_7,3,0x000),
    DN(___,0,0x000),
    DN(___,0,0x000),
    DN(___,0,0x000),
    DN(C_8,2,0x000),
    DN(___,0,0x000),
    DN(C_7,1,0x000),
    DN(___,0,0x000),
    DN(___,0,0x000),
    DN(___,0,0x000),
    DN(C_8,2,0x000),
    DN(___,0,0x000),
    DN(D_7,3,0x000),
    DN(___,0,0x000),
    DN(___,0,0x000),
    DN(___,0,0x000),
    DN(C_8,2,0x000),
    DN(___,0,0x000),
    DN(C_7,1,0x000),
    DN(___,0,0x000),
    DN(___,0,0x000),
    DN(___,0,0x000),
    DN(C_7,1,0x000),
    DN(___,0,0x000),
    DN(D_7,3,0x000),
    DN(___,0,0x000),
    DN(___,0,0x000),
    DN(___,0,0x000),
    DN(C_8,2,0x000),
    DN(___,0,0xD01),
    DN(___,0,0x000),
    DN(___,0,0x000),
    DN(___,0,0x000),
    DN(___,0,0x000),
    DN(___,0,0x000),
    DN(___,0,0x000),
    DN(___,0,0x000),
    DN(___,0,0x000),
    DN(___,0,0x000),
    DN(___,0,0x000),
    DN(___,0,0x000),
    DN(___,0,0x000),
    DN(___,0,0x000),
    DN(___,0,0x000),
    DN(___,0,0x000),
    DN(___,0,0x000),
};
static const unsigned char P4[] = {
    DN(G_3,2,0x940),
    DN(___,0,0x980),
    DN(___,0,0x9C0),
    DN(___,0,0x980),
    DN(___,0,0x940),
    DN(___,0,0x980),
    DN(___,0,0x9C0),
    DN(___,0,0x980),
    DN(___,0,0x940),
    DN(___,0,0x980),
    DN(G_3,2,0x9C0),
    DN(___,0,0x980),
    DN(___,0,0x940),
    DN(___,0,0x980),
    DN(___,0,0x9C0),
    DN(___,0,0x980),
    DN(G_4,2,0x940),
    DN(___,0,0x980),
    DN(___,0,0x9C0),
    DN(___,0,0x980),
    DN(___,0,0x940),
    DN(___,0,0x980),
    DN(___,0,0x9C0),
    DN(___,0,0x980),
    DN(Ds3,2,0x940),
    DN(___,0,0x980),
    DN(___,0,0x9C0),
    DN(___,0,0x980),
    DN(___,0,0x940),
    DN(___,0,0x980),
    DN(___,0,0x9C0),
    DN(___,0,0x980),
    DN(___,0,0x940),
    DN(___,0,0x980),
    DN(Ds3,2,0x9C0),
    DN(___,0,0x980),
    DN(___,0,0x940),
    DN(___,0,0x980),
    DN(___,0,0x9C0),
    DN(___,0,0x980),
    DN(Ds4,2,0x940),
    DN(___,0,0x980),
    DN(___,0,0x9C0),
    DN(___,0,0x980),
    DN(___,0,0x940),
    DN(___,0,0x980),
    DN(Ds4,2,0x9C0),
    DN(___,0,0x980),
    DN(___,0,0x000),
    DN(___,0,0x000),
    DN(___,0,0x000),
    DN(___,0,0x000),
    DN(___,0,0x000),
    DN(___,0,0x000),
    DN(___,0,0x000),
    DN(___,0,0x000),
    DN(___,0,0x000),
    DN(___,0,0x000),
    DN(___,0,0x000),
    DN(___,0,0x000),
    DN(___,0,0x000),
    DN(___,0,0x000),
    DN(___,0,0x000),
    DN(___,0,0x000),
};
static const unsigned char P5[] = {
    DN(B_6,2,0xC0F),
    DN(___,0,0x000),
    DN(___,0,0x000),
    DN(___,0,0xC06),
    DN(___,0,0x000),
    DN(___,0,0x000),
    DN(A_6,2,0xC0F),
    DN(___,0,0x000),
    DN(___,0,0x000),
    DN(___,0,0xC06),
    DN(___,0,0x000),
    DN(___,0,0x000),
    DN(G_6,2,0xC0F),
    DN(___,0,0x000),
    DN(___,0,0x000),
    DN(___,0,0xC06),
    DN(A_6,2,0xC0F),
    DN(___,0,0x000),
    DN(G_6,2,0xC0F),
    DN(___,0,0x000),
    DN(___,0,0x000),
    DN(___,0,0xC06),
    DN(E_6,2,0xC0F),
    DN(___,0,0x000),
    DN(D_6,2,0xC0F),
    DN(___,0,0x000),
    DN(___,0,0x000),
    DN(___,0,0xC06),
    DN(E_6,2,0xC0F),
    DN(___,0,0x000),
    DN(G_6,2,0xC0F),
    DN(___,0,0x000),
    DN(___,0,0x000),
    DN(___,0,0xC06),
    DN(D_6,2,0xC0F),
    DN(___,0,0x000),
    DN(___,0,0x000),
    DN(___,0,0xC06),
    DN(___,0,0x000),
    DN(___,0,0x000),
    DN(___,0,0x000),
    DN(___,0,0x000),
    DN(___,0,0x000),
    DN(___,0,0x000),
    DN(___,0,0x000),
    DN(___,0,0x000),
    DN(B_5,2,0xC0F),
    DN(___,0,0x000),
    DN(___,0,0x000),
    DN(___,0,0x000),
    DN(___,0,0x000),
    DN(___,0,0x000),
    DN(___,0,0x000),
    DN(___,0,0x000),
    DN(___,0,0x000),
    DN(___,0,0x000),
    DN(___,0,0x000),
    DN(___,0,0x000),
    DN(___,0,0x000),
    DN(___,0,0x000),
    DN(___,0,0x000),
    DN(___,0,0x000),
    DN(___,0,0x000),
    DN(___,0,0x000),
};
static const unsigned char P6[] = {
    DN(D_6,2,0xC0F),
    DN(___,0,0x000),
    DN(___,0,0x000),
    DN(___,0,0xC06),
    DN(___,0,0x000),
    DN(___,0,0x000),
    DN(B_5,2,0xC0F),
    DN(___,0,0x000),
    DN(___,0,0x000),
    DN(___,0,0xC06),
    DN(___,0,0x000),
    DN(___,0,0x000),
    DN(D_6,2,0xC0F),
    DN(___,0,0x000),
    DN(___,0,0x000),
    DN(___,0,0xC06),
    DN(B_5,2,0xC0F),
    DN(___,0,0x000),
    DN(D_6,2,0xC0F),
    DN(___,0,0x000),
    DN(___,0,0x000),
    DN(___,0,0xC06),
    DN(B_5,2,0xC0F),
    DN(___,0,0x000),
    DN(Ds6,2,0xC0F),
    DN(___,0,0x000),
    DN(___,0,0x000),
    DN(___,0,0xC06),
    DN(___,0,0x000),
    DN(___,0,0x000),
    DN(B_5,2,0xC0F),
    DN(___,0,0x000),
    DN(___,0,0x000),
    DN(___,0,0xC06),
    DN(___,0,0x000),
    DN(___,0,0x000),
    DN(Ds6,2,0xC0F),
    DN(___,0,0x000),
    DN(___,0,0x000),
    DN(___,0,0xC06),
    DN(B_5,2,0xC0F),
    DN(___,0,0x000),
    DN(A_5,2,0xC0F),
    DN(___,0,0x000),
    DN(___,0,0x000),
    DN(___,0,0xC06),
    DN(B_5,2,0xC0F),
    DN(___,0,0x000),
    DN(___,0,0x000),
    DN(___,0,0xC06),
    DN(___,0,0x000),
    DN(___,0,0x000),
    DN(___,0,0x000),
    DN(___,0,0x000),
    DN(___,0,0x000),
    DN(___,0,0x000),
    DN(___,0,0x000),
    DN(___,0,0x000),
    DN(___,0,0x000),
    DN(___,0,0x000),
    DN(___,0,0x000),
    DN(___,0,0x000),
    DN(___,0,0x000),
    DN(___,0,0x000),
};
static const unsigned char P7[] = {
    DN(E_5,2,0xC0F),
    DN(___,0,0x000),
    DN(___,0,0x000),
    DN(___,0,0xC06),
    DN(___,0,0x000),
    DN(___,0,0x000),
    DN(___,0,0x000),
    DN(___,0,0x000),
    DN(___,0,0x000),
    DN(___,0,0x000),
    DN(___,0,0x000),
    DN(___,0,0x000),
    DN(___,0,0x000),
    DN(___,0,0x000),
    DN(___,0,0x000),
    DN(___,0,0x000),
    DN(___,0,0xC00),
    DN(___,0,0x000),
    DN(___,0,0x000),
    DN(___,0,0x000),
    DN(___,0,0x000),
    DN(___,0,0x000),
    DN(___,0,0x000),
    DN(___,0,0x000),
    DN(___,0,0x000),
    DN(___,0,0x000),
    DN(___,0,0x000),
    DN(___,0,0x000),
    DN(___,0,0x000),
    DN(___,0,0x000),
    DN(___,0,0x000),
    DN(___,0,0x000),
    DN(___,0,0x000),
    DN(___,0,0x000),
    DN(___,0,0x000),
    DN(___,0,0x000),
    DN(___,0,0x000),
    DN(___,0,0x000),
    DN(___,0,0x000),
    DN(___,0,0x000),
    DN(___,0,0x000),
    DN(___,0,0x000),
    DN(___,0,0x000),
    DN(___,0,0x000),
    DN(___,0,0x000),
    DN(___,0,0x000),
    DN(___,0,0x000),
    DN(___,0,0xD01),
    DN(___,0,0x000),
    DN(___,0,0x000),
    DN(___,0,0x000),
    DN(___,0,0x000),
    DN(___,0,0x000),
    DN(___,0,0x000),
    DN(___,0,0x000),
    DN(___,0,0x000),
    DN(___,0,0x000),
    DN(___,0,0x000),
    DN(___,0,0x000),
    DN(___,0,0x000),
    DN(___,0,0x000),
    DN(___,0,0x000),
    DN(___,0,0x000),
    DN(___,0,0x000),
};
static const unsigned char P8[] = {
    DN(E_6,2,0xC0F),
    DN(___,0,0x000),
    DN(___,0,0x000),
    DN(___,0,0xC06),
    DN(___,0,0x000),
    DN(___,0,0x000),
    DN(___,0,0x000),
    DN(___,0,0x000),
    DN(___,0,0x000),
    DN(___,0,0x000),
    DN(___,0,0x000),
    DN(___,0,0x000),
    DN(___,0,0x000),
    DN(___,0,0x000),
    DN(___,0,0x000),
    DN(___,0,0x000),
    DN(___,0,0xC00),
    DN(___,0,0x000),
    DN(___,0,0x000),
    DN(___,0,0x000),
    DN(___,0,0x000),
    DN(___,0,0x000),
    DN(___,0,0x000),
    DN(___,0,0x000),
    DN(___,0,0x000),
    DN(___,0,0x000),
    DN(___,0,0x000),
    DN(___,0,0x000),
    DN(___,0,0x000),
    DN(___,0,0x000),
    DN(___,0,0x000),
    DN(___,0,0x000),
    DN(___,0,0x000),
    DN(___,0,0x000),
    DN(___,0,0x000),
    DN(___,0,0x000),
    DN(___,0,0x000),
    DN(___,0,0x000),
    DN(___,0,0x000),
    DN(___,0,0x000),
    DN(___,0,0x000),
    DN(___,0,0x000),
    DN(___,0,0x000),
    DN(___,0,0x000),
    DN(___,0,0x000),
    DN(___,0,0x000),
    DN(___,0,0x000),
    DN(___,0,0xB05),
    DN(___,0,0x000),
    DN(___,0,0x000),
    DN(___,0,0x000),
    DN(___,0,0x000),
    DN(___,0,0x000),
    DN(___,0,0x000),
    DN(___,0,0x000),
    DN(___,0,0x000),
    DN(___,0,0x000),
    DN(___,0,0x000),
    DN(___,0,0x000),
    DN(___,0,0x000),
    DN(___,0,0x000),
    DN(___,0,0x000),
    DN(___,0,0x000),
    DN(___,0,0x000),
};
static const unsigned char P9[] = {
    DN(B_6,1,0x000),
    DN(___,0,0x000),
    DN(___,0,0x000),
    DN(___,0,0x000),
    DN(___,0,0x000),
    DN(___,0,0x000),
    DN(A_6,1,0x000),
    DN(___,0,0x000),
    DN(___,0,0x000),
    DN(___,0,0x000),
    DN(___,0,0x000),
    DN(___,0,0x000),
    DN(G_6,1,0x000),
    DN(___,0,0x000),
    DN(___,0,0x000),
    DN(___,0,0x000),
    DN(A_6,1,0x000),
    DN(___,0,0x000),
    DN(G_6,1,0x000),
    DN(___,0,0x000),
    DN(___,0,0x000),
    DN(___,0,0x000),
    DN(E_6,1,0x000),
    DN(___,0,0x000),
    DN(D_6,1,0x000),
    DN(___,0,0x000),
    DN(___,0,0x000),
    DN(___,0,0x000),
    DN(E_6,1,0x000),
    DN(___,0,0x000),
    DN(G_6,1,0x000),
    DN(___,0,0x000),
    DN(___,0,0x000),
    DN(___,0,0x000),
    DN(D_6,1,0x000),
    DN(___,0,0x000),
    DN(___,0,0x000),
    DN(___,0,0x000),
    DN(___,0,0x000),
    DN(___,0,0x000),
    DN(___,0,0x000),
    DN(___,0,0x000),
    DN(___,0,0x000),
    DN(___,0,0x000),
    DN(___,0,0x000),
    DN(___,0,0x000),
    DN(B_5,1,0x000),
    DN(___,0,0x000),
    DN(___,0,0x000),
    DN(___,0,0x000),
    DN(___,0,0x000),
    DN(___,0,0x000),
    DN(___,0,0x000),
    DN(___,0,0x000),
    DN(___,0,0x000),
    DN(___,0,0x000),
    DN(___,0,0x000),
    DN(___,0,0x000),
    DN(___,0,0x000),
    DN(___,0,0x000),
    DN(___,0,0x000),
    DN(___,0,0x000),
    DN(___,0,0x000),
    DN(___,0,0x000),
};
static const unsigned char P12[] = {
    DN(B_6,2,0xC0F),
    DN(___,0,0x000),
    DN(___,0,0x000),
    DN(___,0,0xC06),
    DN(___,0,0x000),
    DN(___,0,0x000),
    DN(A_6,2,0xC0F),
    DN(___,0,0x000),
    DN(___,0,0x000),
    DN(___,0,0xC06),
    DN(___,0,0x000),
    DN(___,0,0x000),
    DN(G_6,2,0xC0F),
    DN(___,0,0x000),
    DN(___,0,0x000),
    DN(___,0,0xC06),
    DN(A_6,2,0xC0F),
    DN(___,0,0x000),
    DN(G_6,2,0xC0F),
    DN(___,0,0x000),
    DN(___,0,0x000),
    DN(___,0,0xC06),
    DN(E_6,2,0xC0F),
    DN(___,0,0x000),
    DN(B_6,2,0xC0F),
    DN(___,0,0x000),
    DN(___,0,0x000),
    DN(___,0,0xC06),
    DN(A_6,2,0xC0F),
    DN(___,0,0x000),
    DN(G_6,2,0xC0F),
    DN(___,0,0x000),
    DN(___,0,0x000),
    DN(___,0,0xC06),
    DN(D_6,2,0xC0F),
    DN(___,0,0x000),
    DN(___,0,0x000),
    DN(___,0,0xC06),
    DN(___,0,0x000),
    DN(___,0,0x000),
    DN(___,0,0x000),
    DN(___,0,0x000),
    DN(___,0,0x000),
    DN(___,0,0x000),
    DN(___,0,0x000),
    DN(___,0,0x000),
    DN(E_6,2,0xC0F),
    DN(___,0,0x000),
    DN(___,0,0x000),
    DN(___,0,0xC06),
    DN(___,0,0x000),
    DN(___,0,0x000),
    DN(___,0,0x000),
    DN(___,0,0x000),
    DN(___,0,0x000),
    DN(___,0,0x000),
    DN(___,0,0x000),
    DN(___,0,0x000),
    DN(___,0,0x000),
    DN(___,0,0x000),
    DN(___,0,0x000),
    DN(___,0,0x000),
    DN(___,0,0x000),
    DN(___,0,0x000),
};
static const unsigned char P10[] = {
    DN(D_6,1,0x000),
    DN(___,0,0x000),
    DN(___,0,0x000),
    DN(___,0,0x000),
    DN(___,0,0x000),
    DN(___,0,0x000),
    DN(B_5,1,0x000),
    DN(___,0,0x000),
    DN(___,0,0x000),
    DN(___,0,0x000),
    DN(___,0,0x000),
    DN(___,0,0x000),
    DN(D_6,1,0x000),
    DN(___,0,0x000),
    DN(___,0,0x000),
    DN(___,0,0x000),
    DN(B_5,1,0x000),
    DN(___,0,0x000),
    DN(D_6,1,0x000),
    DN(___,0,0x000),
    DN(___,0,0x000),
    DN(___,0,0x000),
    DN(B_5,1,0x000),
    DN(___,0,0x000),
    DN(Ds6,1,0x000),
    DN(___,0,0x000),
    DN(___,0,0x000),
    DN(___,0,0x000),
    DN(___,0,0x000),
    DN(___,0,0x000),
    DN(B_5,1,0x000),
    DN(___,0,0x000),
    DN(___,0,0x000),
    DN(___,0,0x000),
    DN(___,0,0x000),
    DN(___,0,0x000),
    DN(Ds6,1,0x000),
    DN(___,0,0x000),
    DN(___,0,0x000),
    DN(___,0,0x000),
    DN(B_5,1,0x000),
    DN(___,0,0x000),
    DN(A_5,1,0x000),
    DN(___,0,0x000),
    DN(___,0,0x000),
    DN(___,0,0x000),
    DN(B_5,1,0x000),
    DN(___,0,0x000),
    DN(___,0,0x000),
    DN(___,0,0x000),
    DN(___,0,0x000),
    DN(___,0,0x000),
    DN(___,0,0x000),
    DN(___,0,0x000),
    DN(___,0,0x000),
    DN(___,0,0x000),
    DN(___,0,0x000),
    DN(___,0,0x000),
    DN(___,0,0x000),
    DN(___,0,0x000),
    DN(___,0,0x000),
    DN(___,0,0x000),
    DN(___,0,0x000),
    DN(___,0,0x000),
};
static const unsigned char P11[] = {
    DN(E_5,1,0x000),
    DN(___,0,0x000),
    DN(___,0,0x000),
    DN(___,0,0x000),
    DN(___,0,0x000),
    DN(___,0,0x000),
    DN(___,0,0x000),
    DN(___,0,0x000),
    DN(___,0,0x000),
    DN(___,0,0x000),
    DN(___,0,0x000),
    DN(___,0,0x000),
    DN(___,0,0x000),
    DN(___,0,0x000),
    DN(___,0,0x000),
    DN(___,0,0x000),
    DN(___,0,0x000),
    DN(___,0,0x000),
    DN(___,0,0x000),
    DN(___,0,0x000),
    DN(___,0,0x000),
    DN(___,0,0x000),
    DN(___,0,0x000),
    DN(___,0,0x000),
    DN(___,0,0x000),
    DN(___,0,0x000),
    DN(___,0,0x000),
    DN(___,0,0x000),
    DN(___,0,0x000),
    DN(___,0,0x000),
    DN(___,0,0x000),
    DN(___,0,0x000),
    DN(___,0,0x000),
    DN(___,0,0x000),
    DN(___,0,0x000),
    DN(___,0,0x000),
    DN(___,0,0x000),
    DN(___,0,0x000),
    DN(___,0,0x000),
    DN(___,0,0x000),
    DN(___,0,0x000),
    DN(___,0,0x000),
    DN(___,0,0x000),
    DN(___,0,0x000),
    DN(___,0,0x000),
    DN(___,0,0x000),
    DN(___,0,0x000),
    DN(___,0,0x000),
    DN(___,0,0x000),
    DN(___,0,0x000),
    DN(___,0,0x000),
    DN(___,0,0x000),
    DN(___,0,0x000),
    DN(___,0,0x000),
    DN(___,0,0x000),
    DN(___,0,0x000),
    DN(___,0,0x000),
    DN(___,0,0x000),
    DN(___,0,0x000),
    DN(___,0,0x000),
    DN(___,0,0x000),
    DN(___,0,0x000),
    DN(___,0,0x000),
    DN(___,0,0x000),
};
static const unsigned char P13[] = {
    DN(G_6,2,0xC0F),
    DN(___,0,0x000),
    DN(___,0,0x000),
    DN(___,0,0xC06),
    DN(___,0,0x000),
    DN(___,0,0x000),
    DN(E_6,2,0xC0F),
    DN(___,0,0x000),
    DN(___,0,0x000),
    DN(___,0,0xC06),
    DN(___,0,0x000),
    DN(___,0,0x000),
    DN(G_6,2,0xC0F),
    DN(___,0,0x000),
    DN(___,0,0x000),
    DN(___,0,0xC06),
    DN(A_6,2,0xC0F),
    DN(___,0,0x000),
    DN(___,0,0x000),
    DN(___,0,0xC06),
    DN(___,0,0x000),
    DN(___,0,0x000),
    DN(As6,2,0xC0F),
    DN(___,0,0x000),
    DN(B_6,2,0xC0F),
    DN(___,0,0x000),
    DN(___,0,0x000),
    DN(___,0,0xC06),
    DN(___,0,0x000),
    DN(___,0,0x000),
    DN(A_6,2,0xC0F),
    DN(___,0,0x000),
    DN(___,0,0x000),
    DN(___,0,0xC06),
    DN(___,0,0x000),
    DN(___,0,0x000),
    DN(Ds6,2,0xC0F),
    DN(___,0,0x000),
    DN(___,0,0x000),
    DN(___,0,0xC06),
    DN(G_6,2,0xC0F),
    DN(___,0,0x000),
    DN(___,0,0x000),
    DN(___,0,0xC06),
    DN(___,0,0x000),
    DN(___,0,0x000),
    DN(D_6,2,0xC0F),
    DN(___,0,0x000),
    DN(___,0,0x000),
    DN(___,0,0xC06),
    DN(___,0,0x000),
    DN(___,0,0x000),
    DN(___,0,0x000),
    DN(___,0,0x000),
    DN(___,0,0x000),
    DN(___,0,0x000),
    DN(___,0,0x000),
    DN(___,0,0x000),
    DN(___,0,0x000),
    DN(___,0,0x000),
    DN(___,0,0x000),
    DN(___,0,0x000),
    DN(___,0,0x000),
    DN(___,0,0x000),
};
static const unsigned char P14[] = {
    DN(E_6,2,0xC0F),
    DN(___,0,0x000),
    DN(___,0,0x000),
    DN(___,0,0xC06),
    DN(___,0,0x000),
    DN(___,0,0x000),
    DN(___,0,0x000),
    DN(___,0,0x000),
    DN(___,0,0x000),
    DN(___,0,0x000),
    DN(___,0,0x000),
    DN(___,0,0x000),
    DN(___,0,0x000),
    DN(___,0,0x000),
    DN(___,0,0x000),
    DN(___,0,0x000),
    DN(___,0,0xC00),
    DN(___,0,0x000),
    DN(___,0,0x000),
    DN(___,0,0x000),
    DN(___,0,0x000),
    DN(___,0,0x000),
    DN(___,0,0x000),
    DN(___,0,0x000),
    DN(___,0,0x000),
    DN(___,0,0x000),
    DN(___,0,0x000),
    DN(___,0,0x000),
    DN(___,0,0x000),
    DN(___,0,0x000),
    DN(___,0,0x000),
    DN(___,0,0x000),
    DN(___,0,0x000),
    DN(___,0,0x000),
    DN(___,0,0x000),
    DN(___,0,0x000),
    DN(___,0,0x000),
    DN(___,0,0x000),
    DN(___,0,0x000),
    DN(___,0,0x000),
    DN(___,0,0x000),
    DN(___,0,0x000),
    DN(___,0,0x000),
    DN(___,0,0x000),
    DN(___,0,0x000),
    DN(___,0,0x000),
    DN(___,0,0x000),
    DN(___,0,0x000),
    DN(___,0,0x000),
    DN(___,0,0x000),
    DN(___,0,0x000),
    DN(___,0,0x000),
    DN(___,0,0x000),
    DN(___,0,0x000),
    DN(___,0,0x000),
    DN(___,0,0x000),
    DN(___,0,0x000),
    DN(___,0,0x000),
    DN(___,0,0x000),
    DN(___,0,0x000),
    DN(___,0,0x000),
    DN(___,0,0x000),
    DN(___,0,0x000),
    DN(___,0,0x000),
};
static const unsigned char P15[] = {
    DN(B_6,1,0x000),
    DN(___,0,0x000),
    DN(___,0,0x000),
    DN(___,0,0x000),
    DN(___,0,0x000),
    DN(___,0,0x000),
    DN(A_6,1,0x000),
    DN(___,0,0x000),
    DN(___,0,0x000),
    DN(___,0,0x000),
    DN(___,0,0x000),
    DN(___,0,0x000),
    DN(G_6,1,0x000),
    DN(___,0,0x000),
    DN(___,0,0x000),
    DN(___,0,0x000),
    DN(A_6,1,0x000),
    DN(___,0,0x000),
    DN(G_6,1,0x000),
    DN(___,0,0x000),
    DN(___,0,0x000),
    DN(___,0,0x000),
    DN(E_6,1,0x000),
    DN(___,0,0x000),
    DN(B_6,1,0x000),
    DN(___,0,0x000),
    DN(___,0,0x000),
    DN(___,0,0x000),
    DN(A_6,1,0x000),
    DN(___,0,0x000),
    DN(G_6,1,0x000),
    DN(___,0,0x000),
    DN(___,0,0x000),
    DN(___,0,0x000),
    DN(D_6,1,0x000),
    DN(___,0,0x000),
    DN(___,0,0x000),
    DN(___,0,0x000),
    DN(___,0,0x000),
    DN(___,0,0x000),
    DN(___,0,0x000),
    DN(___,0,0x000),
    DN(___,0,0x000),
    DN(___,0,0x000),
    DN(___,0,0x000),
    DN(___,0,0x000),
    DN(E_6,1,0x000),
    DN(___,0,0x000),
    DN(___,0,0x000),
    DN(___,0,0x000),
    DN(___,0,0x000),
    DN(___,0,0x000),
    DN(___,0,0x000),
    DN(___,0,0x000),
    DN(___,0,0x000),
    DN(___,0,0x000),
    DN(___,0,0x000),
    DN(___,0,0x000),
    DN(___,0,0x000),
    DN(___,0,0x000),
    DN(___,0,0x000),
    DN(___,0,0x000),
    DN(___,0,0x000),
    DN(___,0,0x000),
};
static const unsigned char P16[] = {
    DN(G_6,1,0x000),
    DN(___,0,0x000),
    DN(___,0,0x000),
    DN(___,0,0x000),
    DN(___,0,0x000),
    DN(___,0,0x000),
    DN(E_6,1,0x000),
    DN(___,0,0x000),
    DN(___,0,0x000),
    DN(___,0,0x000),
    DN(___,0,0x000),
    DN(___,0,0x000),
    DN(G_6,1,0x000),
    DN(___,0,0x000),
    DN(___,0,0x000),
    DN(___,0,0x000),
    DN(A_6,1,0x000),
    DN(___,0,0x000),
    DN(___,0,0x000),
    DN(___,0,0x000),
    DN(___,0,0x000),
    DN(___,0,0x000),
    DN(As6,1,0x000),
    DN(___,0,0x000),
    DN(B_6,1,0x000),
    DN(___,0,0x000),
    DN(___,0,0x000),
    DN(___,0,0x000),
    DN(___,0,0x000),
    DN(___,0,0x000),
    DN(A_6,1,0x000),
    DN(___,0,0x000),
    DN(___,0,0x000),
    DN(___,0,0x000),
    DN(___,0,0x000),
    DN(___,0,0x000),
    DN(Ds6,1,0x000),
    DN(___,0,0x000),
    DN(___,0,0x000),
    DN(___,0,0x000),
    DN(G_6,1,0x000),
    DN(___,0,0x000),
    DN(___,0,0x000),
    DN(___,0,0x000),
    DN(___,0,0x000),
    DN(___,0,0x000),
    DN(D_6,1,0x000),
    DN(___,0,0x000),
    DN(___,0,0x000),
    DN(___,0,0x000),
    DN(___,0,0x000),
    DN(___,0,0x000),
    DN(___,0,0x000),
    DN(___,0,0x000),
    DN(___,0,0x000),
    DN(___,0,0x000),
    DN(___,0,0x000),
    DN(___,0,0x000),
    DN(___,0,0x000),
    DN(___,0,0x000),
    DN(___,0,0x000),
    DN(___,0,0x000),
    DN(___,0,0x000),
    DN(___,0,0x000),
};
static const unsigned char P17[] = {
    DN(E_6,1,0x000),
    DN(___,0,0x000),
    DN(___,0,0x000),
    DN(___,0,0x000),
    DN(___,0,0x000),
    DN(___,0,0x000),
    DN(___,0,0x000),
    DN(___,0,0x000),
    DN(___,0,0x000),
    DN(___,0,0x000),
    DN(___,0,0x000),
    DN(___,0,0x000),
    DN(___,0,0x000),
    DN(___,0,0x000),
    DN(___,0,0x000),
    DN(___,0,0x000),
    DN(___,0,0x000),
    DN(___,0,0x000),
    DN(___,0,0x000),
    DN(___,0,0x000),
    DN(___,0,0x000),
    DN(___,0,0x000),
    DN(___,0,0x000),
    DN(___,0,0x000),
    DN(___,0,0x000),
    DN(___,0,0x000),
    DN(___,0,0x000),
    DN(___,0,0x000),
    DN(___,0,0x000),
    DN(___,0,0x000),
    DN(___,0,0x000),
    DN(___,0,0x000),
    DN(___,0,0x000),
    DN(___,0,0x000),
    DN(___,0,0x000),
    DN(___,0,0x000),
    DN(___,0,0x000),
    DN(___,0,0x000),
    DN(___,0,0x000),
    DN(___,0,0x000),
    DN(___,0,0x000),
    DN(___,0,0x000),
    DN(___,0,0x000),
    DN(___,0,0x000),
    DN(___,0,0x000),
    DN(___,0,0x000),
    DN(___,0,0x000),
    DN(___,0,0x000),
    DN(___,0,0x000),
    DN(___,0,0x000),
    DN(___,0,0x000),
    DN(___,0,0x000),
    DN(___,0,0x000),
    DN(___,0,0x000),
    DN(___,0,0x000),
    DN(___,0,0x000),
    DN(___,0,0x000),
    DN(___,0,0x000),
    DN(___,0,0x000),
    DN(___,0,0x000),
    DN(___,0,0x000),
    DN(___,0,0x000),
    DN(___,0,0x000),
    DN(___,0,0x000),
};
static const unsigned char P18[] = {
    DN(Fs6,2,0xC0F),
    DN(___,0,0x000),
    DN(___,0,0x000),
    DN(___,0,0xC06),
    DN(___,0,0x000),
    DN(___,0,0x000),
    DN(___,0,0x000),
    DN(___,0,0x000),
    DN(___,0,0x000),
    DN(___,0,0x000),
    DN(E_6,2,0xC0F),
    DN(___,0,0x000),
    DN(___,0,0x000),
    DN(___,0,0xC06),
    DN(___,0,0x000),
    DN(___,0,0x000),
    DN(___,0,0x000),
    DN(___,0,0x000),
    DN(Cs6,2,0xC0F),
    DN(___,0,0x000),
    DN(___,0,0x000),
    DN(___,0,0xC06),
    DN(___,0,0x000),
    DN(___,0,0x000),
    DN(D_6,2,0xC0F),
    DN(___,0,0x000),
    DN(___,0,0x000),
    DN(___,0,0xC06),
    DN(___,0,0x000),
    DN(___,0,0x000),
    DN(E_6,2,0xC0F),
    DN(___,0,0x000),
    DN(___,0,0x000),
    DN(___,0,0xC06),
    DN(D_6,2,0xC0F),
    DN(___,0,0x000),
    DN(___,0,0x000),
    DN(___,0,0xC06),
    DN(___,0,0x000),
    DN(___,0,0x000),
    DN(A_5,2,0xC0F),
    DN(___,0,0x000),
    DN(D_6,2,0xC0F),
    DN(___,0,0x000),
    DN(___,0,0x000),
    DN(___,0,0xC06),
    DN(E_6,2,0xC0F),
    DN(___,0,0x000),
    DN(___,0,0x000),
    DN(___,0,0xC06),
    DN(___,0,0x000),
    DN(___,0,0x000),
    DN(___,0,0x000),
    DN(___,0,0x000),
    DN(___,0,0x000),
    DN(___,0,0x000),
    DN(___,0,0x000),
    DN(___,0,0x000),
    DN(___,0,0x000),
    DN(___,0,0x000),
    DN(___,0,0x000),
    DN(___,0,0x000),
    DN(___,0,0x000),
    DN(___,0,0x000),
};
static const unsigned char P19[] = {
    DN(Fs3,2,0x940),
    DN(___,0,0x980),
    DN(___,0,0x9C0),
    DN(___,0,0x980),
    DN(___,0,0x940),
    DN(___,0,0x980),
    DN(___,0,0x9C0),
    DN(___,0,0x980),
    DN(___,0,0x940),
    DN(___,0,0x980),
    DN(Fs3,2,0x9C0),
    DN(___,0,0x980),
    DN(___,0,0x940),
    DN(___,0,0x980),
    DN(___,0,0x9C0),
    DN(___,0,0x980),
    DN(Fs3,2,0x940),
    DN(___,0,0x980),
    DN(___,0,0x9C0),
    DN(___,0,0x980),
    DN(___,0,0x940),
    DN(___,0,0x980),
    DN(Fs3,2,0x9C0),
    DN(___,0,0x980),
    DN(D_3,2,0x940),
    DN(___,0,0x980),
    DN(___,0,0x9C0),
    DN(___,0,0x980),
    DN(___,0,0x940),
    DN(___,0,0x980),
    DN(___,0,0x9C0),
    DN(___,0,0x980),
    DN(___,0,0x940),
    DN(___,0,0x980),
    DN(D_3,2,0x9C0),
    DN(___,0,0x980),
    DN(___,0,0x940),
    DN(___,0,0x980),
    DN(___,0,0x9C0),
    DN(___,0,0x980),
    DN(D_4,2,0x940),
    DN(___,0,0x980),
    DN(___,0,0x9C0),
    DN(___,0,0x980),
    DN(___,0,0x940),
    DN(___,0,0x980),
    DN(B_3,2,0x9C0),
    DN(___,0,0x980),
    DN(___,0,0x000),
    DN(___,0,0x000),
    DN(___,0,0x000),
    DN(___,0,0x000),
    DN(___,0,0x000),
    DN(___,0,0x000),
    DN(___,0,0x000),
    DN(___,0,0x000),
    DN(___,0,0x000),
    DN(___,0,0x000),
    DN(___,0,0x000),
    DN(___,0,0x000),
    DN(___,0,0x000),
    DN(___,0,0x000),
    DN(___,0,0x000),
    DN(___,0,0x000),
};
static const unsigned char P20[] = {
    DN(A_6,2,0xC0F),
    DN(___,0,0x000),
    DN(___,0,0x000),
    DN(___,0,0xC06),
    DN(___,0,0x000),
    DN(___,0,0x000),
    DN(___,0,0x000),
    DN(___,0,0x000),
    DN(___,0,0x000),
    DN(___,0,0x000),
    DN(Fs6,2,0xC0F),
    DN(___,0,0x000),
    DN(___,0,0x000),
    DN(___,0,0xC06),
    DN(___,0,0x000),
    DN(___,0,0x000),
    DN(___,0,0x000),
    DN(___,0,0x000),
    DN(Cs6,2,0xC0F),
    DN(___,0,0x000),
    DN(___,0,0x000),
    DN(___,0,0xC06),
    DN(___,0,0x000),
    DN(___,0,0x000),
    DN(E_6,2,0xC0F),
    DN(___,0,0x000),
    DN(___,0,0x000),
    DN(___,0,0xC06),
    DN(Fs6,2,0xC0F),
    DN(___,0,0x000),
    DN(E_6,2,0xC0F),
    DN(___,0,0x000),
    DN(___,0,0x000),
    DN(___,0,0xC06),
    DN(Fs6,2,0xC0F),
    DN(___,0,0x000),
    DN(A_6,2,0xC0F),
    DN(___,0,0x000),
    DN(___,0,0x000),
    DN(___,0,0xC06),
    DN(Fs6,2,0xC0F),
    DN(___,0,0x000),
    DN(E_6,2,0xC0F),
    DN(___,0,0x000),
    DN(___,0,0x000),
    DN(___,0,0xC06),
    DN(Cs6,2,0xC0F),
    DN(___,0,0x000),
    DN(___,0,0x000),
    DN(___,0,0xC06),
    DN(___,0,0x000),
    DN(___,0,0x000),
    DN(___,0,0x000),
    DN(___,0,0x000),
    DN(___,0,0x000),
    DN(___,0,0x000),
    DN(___,0,0x000),
    DN(___,0,0x000),
    DN(___,0,0x000),
    DN(___,0,0x000),
    DN(___,0,0x000),
    DN(___,0,0x000),
    DN(___,0,0x000),
    DN(___,0,0x000),
};
static const unsigned char P21[] = {
    DN(A_3,2,0x940),
    DN(___,0,0x980),
    DN(___,0,0x9C0),
    DN(___,0,0x980),
    DN(___,0,0x940),
    DN(___,0,0x980),
    DN(___,0,0x9C0),
    DN(___,0,0x980),
    DN(___,0,0x940),
    DN(___,0,0x980),
    DN(A_3,2,0x9C0),
    DN(___,0,0x980),
    DN(___,0,0x940),
    DN(___,0,0x980),
    DN(___,0,0x9C0),
    DN(___,0,0x980),
    DN(A_4,2,0x940),
    DN(___,0,0x980),
    DN(___,0,0x9C0),
    DN(___,0,0x980),
    DN(___,0,0x940),
    DN(___,0,0x980),
    DN(A_4,2,0x9C0),
    DN(___,0,0x980),
    DN(F_3,2,0x940),
    DN(___,0,0x980),
    DN(___,0,0x9C0),
    DN(___,0,0x980),
    DN(___,0,0x940),
    DN(___,0,0x980),
    DN(___,0,0x9C0),
    DN(___,0,0x980),
    DN(___,0,0x940),
    DN(___,0,0x980),
    DN(F_3,2,0x9C0),
    DN(___,0,0x980),
    DN(___,0,0x940),
    DN(___,0,0x980),
    DN(___,0,0x9C0),
    DN(___,0,0x980),
    DN(F_4,2,0x940),
    DN(___,0,0x980),
    DN(___,0,0x9C0),
    DN(___,0,0x980),
    DN(___,0,0x940),
    DN(___,0,0x980),
    DN(Cs4,2,0x9C0),
    DN(___,0,0x980),
    DN(___,0,0x000),
    DN(___,0,0x000),
    DN(___,0,0x000),
    DN(___,0,0x000),
    DN(___,0,0x000),
    DN(___,0,0x000),
    DN(___,0,0x000),
    DN(___,0,0x000),
    DN(___,0,0x000),
    DN(___,0,0x000),
    DN(___,0,0x000),
    DN(___,0,0x000),
    DN(___,0,0x000),
    DN(___,0,0x000),
    DN(___,0,0x000),
    DN(___,0,0x000),
};
static const unsigned char P22[] = {
    DN(Fs6,2,0xC0F),
    DN(___,0,0x000),
    DN(___,0,0x000),
    DN(___,0,0xC06),
    DN(___,0,0x000),
    DN(___,0,0x000),
    DN(___,0,0x000),
    DN(___,0,0x000),
    DN(___,0,0x000),
    DN(___,0,0x000),
    DN(E_6,2,0xC0F),
    DN(___,0,0x000),
    DN(___,0,0x000),
    DN(___,0,0xC06),
    DN(___,0,0x000),
    DN(___,0,0x000),
    DN(___,0,0x000),
    DN(___,0,0x000),
    DN(Cs6,2,0xC0F),
    DN(___,0,0x000),
    DN(___,0,0x000),
    DN(___,0,0xC06),
    DN(___,0,0x000),
    DN(___,0,0x000),
    DN(A_6,2,0xC0F),
    DN(___,0,0x000),
    DN(___,0,0x000),
    DN(___,0,0xC06),
    DN(___,0,0x000),
    DN(___,0,0x000),
    DN(B_6,2,0xC0F),
    DN(___,0,0x000),
    DN(___,0,0x000),
    DN(___,0,0xC06),
    DN(A_6,2,0xC0F),
    DN(___,0,0x000),
    DN(___,0,0x000),
    DN(___,0,0xC06),
    DN(___,0,0x000),
    DN(___,0,0x000),
    DN(Fs6,2,0xC0F),
    DN(___,0,0x000),
    DN(E_6,2,0xC0F),
    DN(___,0,0x000),
    DN(___,0,0x000),
    DN(___,0,0xC06),
    DN(Fs6,2,0xC0F),
    DN(___,0,0x000),
    DN(___,0,0x000),
    DN(___,0,0xC06),
    DN(___,0,0x000),
    DN(___,0,0x000),
    DN(___,0,0x000),
    DN(___,0,0x000),
    DN(___,0,0x000),
    DN(___,0,0x000),
    DN(___,0,0x000),
    DN(___,0,0x000),
    DN(___,0,0x000),
    DN(___,0,0x000),
    DN(___,0,0x000),
    DN(___,0,0x000),
    DN(___,0,0x000),
    DN(___,0,0x000),
};
static const unsigned char P23[] = {
    DN(E_6,2,0xC0F),
    DN(___,0,0x000),
    DN(___,0,0x000),
    DN(___,0,0xC06),
    DN(___,0,0x000),
    DN(___,0,0x000),
    DN(___,0,0x000),
    DN(___,0,0x000),
    DN(___,0,0x000),
    DN(___,0,0x000),
    DN(___,0,0x000),
    DN(___,0,0x000),
    DN(___,0,0x000),
    DN(___,0,0x000),
    DN(___,0,0x000),
    DN(___,0,0x000),
    DN(___,0,0xC00),
    DN(___,0,0x000),
    DN(___,0,0x000),
    DN(___,0,0x000),
    DN(___,0,0x000),
    DN(___,0,0x000),
    DN(___,0,0x000),
    DN(___,0,0x000),
    DN(___,0,0x000),
    DN(___,0,0x000),
    DN(___,0,0x000),
    DN(___,0,0x000),
    DN(Cs6,2,0xC0F),
    DN(___,0,0x000),
    DN(E_6,2,0xC0F),
    DN(___,0,0x000),
    DN(___,0,0x000),
    DN(___,0,0xC06),
    DN(Cs6,2,0xC0F),
    DN(___,0,0x000),
    DN(E_6,2,0xC0F),
    DN(___,0,0x000),
    DN(___,0,0x000),
    DN(___,0,0xC06),
    DN(Cs6,2,0xC0F),
    DN(___,0,0x000),
    DN(B_5,2,0xC0F),
    DN(___,0,0x000),
    DN(___,0,0x000),
    DN(___,0,0xC06),
    DN(Cs6,2,0xC0F),
    DN(___,0,0x000),
    DN(___,0,0x000),
    DN(___,0,0xC06),
    DN(___,0,0x000),
    DN(___,0,0x000),
    DN(___,0,0x000),
    DN(___,0,0x000),
    DN(___,0,0x000),
    DN(___,0,0x000),
    DN(___,0,0x000),
    DN(___,0,0x000),
    DN(___,0,0x000),
    DN(___,0,0x000),
    DN(___,0,0x000),
    DN(___,0,0x000),
    DN(___,0,0x000),
    DN(___,0,0x000),
};
static const unsigned char P24[] = {
    DN(Fs6,1,0x000),
    DN(___,0,0x000),
    DN(___,0,0x000),
    DN(___,0,0x000),
    DN(___,0,0x000),
    DN(___,0,0x000),
    DN(___,0,0x000),
    DN(___,0,0x000),
    DN(___,0,0x000),
    DN(___,0,0x000),
    DN(E_6,1,0x000),
    DN(___,0,0x000),
    DN(___,0,0x000),
    DN(___,0,0x000),
    DN(___,0,0x000),
    DN(___,0,0x000),
    DN(___,0,0x000),
    DN(___,0,0x000),
    DN(Cs6,1,0x000),
    DN(___,0,0x000),
    DN(___,0,0x000),
    DN(___,0,0x000),
    DN(___,0,0x000),
    DN(___,0,0x000),
    DN(D_6,1,0x000),
    DN(___,0,0x000),
    DN(___,0,0x000),
    DN(___,0,0x000),
    DN(___,0,0x000),
    DN(___,0,0x000),
    DN(E_6,1,0x000),
    DN(___,0,0x000),
    DN(___,0,0x000),
    DN(___,0,0x000),
    DN(D_6,1,0x000),
    DN(___,0,0x000),
    DN(___,0,0x000),
    DN(___,0,0x000),
    DN(___,0,0x000),
    DN(___,0,0x000),
    DN(A_5,1,0x000),
    DN(___,0,0x000),
    DN(D_6,1,0x000),
    DN(___,0,0x000),
    DN(___,0,0x000),
    DN(___,0,0x000),
    DN(E_6,1,0x000),
    DN(___,0,0x000),
    DN(___,0,0x000),
    DN(___,0,0x000),
    DN(___,0,0x000),
    DN(___,0,0x000),
    DN(___,0,0x000),
    DN(___,0,0x000),
    DN(___,0,0x000),
    DN(___,0,0x000),
    DN(___,0,0x000),
    DN(___,0,0x000),
    DN(___,0,0x000),
    DN(___,0,0x000),
    DN(___,0,0x000),
    DN(___,0,0x000),
    DN(___,0,0x000),
    DN(___,0,0x000),
};
static const unsigned char P25[] = {
    DN(A_6,1,0x000),
    DN(___,0,0x000),
    DN(___,0,0x000),
    DN(___,0,0x000),
    DN(___,0,0x000),
    DN(___,0,0x000),
    DN(___,0,0x000),
    DN(___,0,0x000),
    DN(___,0,0x000),
    DN(___,0,0x000),
    DN(Fs6,1,0x000),
    DN(___,0,0x000),
    DN(___,0,0x000),
    DN(___,0,0x000),
    DN(___,0,0x000),
    DN(___,0,0x000),
    DN(___,0,0x000),
    DN(___,0,0x000),
    DN(Cs6,1,0x000),
    DN(___,0,0x000),
    DN(___,0,0x000),
    DN(___,0,0x000),
    DN(___,0,0x000),
    DN(___,0,0x000),
    DN(E_6,1,0x000),
    DN(___,0,0x000),
    DN(___,0,0x000),
    DN(___,0,0x000),
    DN(Fs6,1,0x000),
    DN(___,0,0x000),
    DN(E_6,1,0x000),
    DN(___,0,0x000),
    DN(___,0,0x000),
    DN(___,0,0x000),
    DN(Fs6,1,0x000),
    DN(___,0,0x000),
    DN(A_6,1,0x000),
    DN(___,0,0x000),
    DN(___,0,0x000),
    DN(___,0,0x000),
    DN(Fs6,1,0x000),
    DN(___,0,0x000),
    DN(E_6,1,0x000),
    DN(___,0,0x000),
    DN(___,0,0x000),
    DN(___,0,0x000),
    DN(Cs6,1,0x000),
    DN(___,0,0x000),
    DN(___,0,0x000),
    DN(___,0,0x000),
    DN(___,0,0x000),
    DN(___,0,0x000),
    DN(___,0,0x000),
    DN(___,0,0x000),
    DN(___,0,0x000),
    DN(___,0,0x000),
    DN(___,0,0x000),
    DN(___,0,0x000),
    DN(___,0,0x000),
    DN(___,0,0x000),
    DN(___,0,0x000),
    DN(___,0,0x000),
    DN(___,0,0x000),
    DN(___,0,0x000),
};
static const unsigned char P26[] = {
    DN(Fs6,1,0x000),
    DN(___,0,0x000),
    DN(___,0,0x000),
    DN(___,0,0x000),
    DN(___,0,0x000),
    DN(___,0,0x000),
    DN(___,0,0x000),
    DN(___,0,0x000),
    DN(___,0,0x000),
    DN(___,0,0x000),
    DN(E_6,1,0x000),
    DN(___,0,0x000),
    DN(___,0,0x000),
    DN(___,0,0x000),
    DN(___,0,0x000),
    DN(___,0,0x000),
    DN(___,0,0x000),
    DN(___,0,0x000),
    DN(Cs6,1,0x000),
    DN(___,0,0x000),
    DN(___,0,0x000),
    DN(___,0,0x000),
    DN(___,0,0x000),
    DN(___,0,0x000),
    DN(A_6,1,0x000),
    DN(___,0,0x000),
    DN(___,0,0x000),
    DN(___,0,0x000),
    DN(___,0,0x000),
    DN(___,0,0x000),
    DN(B_6,1,0x000),
    DN(___,0,0x000),
    DN(___,0,0x000),
    DN(___,0,0x000),
    DN(A_6,1,0x000),
    DN(___,0,0x000),
    DN(___,0,0x000),
    DN(___,0,0x000),
    DN(___,0,0x000),
    DN(___,0,0x000),
    DN(Fs6,1,0x000),
    DN(___,0,0x000),
    DN(E_6,1,0x000),
    DN(___,0,0x000),
    DN(___,0,0x000),
    DN(___,0,0x000),
    DN(Fs6,1,0x000),
    DN(___,0,0x000),
    DN(___,0,0x000),
    DN(___,0,0x000),
    DN(___,0,0x000),
    DN(___,0,0x000),
    DN(___,0,0x000),
    DN(___,0,0x000),
    DN(___,0,0x000),
    DN(___,0,0x000),
    DN(___,0,0x000),
    DN(___,0,0x000),
    DN(___,0,0x000),
    DN(___,0,0x000),
    DN(___,0,0x000),
    DN(___,0,0x000),
    DN(___,0,0x000),
    DN(___,0,0x000),
};
static const unsigned char P27[] = {
    DN(E_6,1,0x000),
    DN(___,0,0x000),
    DN(___,0,0x000),
    DN(___,0,0x000),
    DN(___,0,0x000),
    DN(___,0,0x000),
    DN(___,0,0x000),
    DN(___,0,0x000),
    DN(___,0,0x000),
    DN(___,0,0x000),
    DN(___,0,0x000),
    DN(___,0,0x000),
    DN(___,0,0x000),
    DN(___,0,0x000),
    DN(___,0,0x000),
    DN(___,0,0x000),
    DN(___,0,0x000),
    DN(___,0,0x000),
    DN(___,0,0x000),
    DN(___,0,0x000),
    DN(___,0,0x000),
    DN(___,0,0x000),
    DN(___,0,0x000),
    DN(___,0,0x000),
    DN(___,0,0x000),
    DN(___,0,0x000),
    DN(___,0,0x000),
    DN(___,0,0x000),
    DN(Cs6,1,0x000),
    DN(___,0,0x000),
    DN(E_6,1,0x000),
    DN(___,0,0x000),
    DN(___,0,0x000),
    DN(___,0,0x000),
    DN(Cs6,1,0x000),
    DN(___,0,0x000),
    DN(E_6,1,0x000),
    DN(___,0,0x000),
    DN(___,0,0x000),
    DN(___,0,0x000),
    DN(Cs6,1,0x000),
    DN(___,0,0x000),
    DN(B_5,1,0x000),
    DN(___,0,0x000),
    DN(___,0,0x000),
    DN(___,0,0x000),
    DN(Cs6,1,0x000),
    DN(___,0,0x000),
    DN(___,0,0x000),
    DN(___,0,0x000),
    DN(___,0,0x000),
    DN(___,0,0x000),
    DN(___,0,0x000),
    DN(___,0,0x000),
    DN(___,0,0x000),
    DN(___,0,0x000),
    DN(___,0,0x000),
    DN(___,0,0x000),
    DN(___,0,0x000),
    DN(___,0,0x000),
    DN(___,0,0x000),
    DN(___,0,0x000),
    DN(___,0,0x000),
    DN(___,0,0x000),
};

static const unsigned char itSquareSP1[] = {
    DN(19,0,0x000),
    DN(___,0,0x000),
    DN(___,0,0x000),
    DN(___,0,0x000),
    DN(___,0,0x000),
    DN(___,0,0x000),
    DN(___,0,0x000),
    DN(___,0,0x000),
    DN(___,0,0x000),
    DN(___,0,0x000),
    DN(___,0,0x000),
    DN(___,0,0x000),
    DN(___,0,0x000),
    DN(___,0,0x000),
    DN(___,0,0x000),
    DN(___,0,0x000),
    DN(___,0,0x000),
    DN(___,0,0x000),
    DN(___,0,0x000),
    DN(___,0,0x000),
    DN(___,0,0x000),
    DN(___,0,0x000),
    DN(___,0,0x000),
    DN(___,0,0x000),
    DN(___,0,0x000),
    DN(___,0,0x000),
    DN(___,0,0x000),
    DN(___,0,0x000),
    DN(___,0,0x000),
    DN(___,0,0x000),
    DN(___,0,0x000),
    DN(___,1,0x000),
};
static const unsigned char itNoiseSP1[] = {
    DN(___,0,0x000),
    DN(22,0,0x000),
    DN(5,0,0x000),
    DN(5,0,0x000),
    DN(5,0,0x000),
    DN(5,0,0x000),
    DN(5,0,0x000),
    DN(___,0,0x000),
    DN(___,0,0x000),
    DN(___,0,0x000),
    DN(___,0,0x000),
    DN(___,0,0x000),
    DN(___,0,0x000),
    DN(___,0,0x000),
    DN(___,0,0x000),
    DN(___,0,0x000),
    DN(___,0,0x000),
    DN(___,0,0x000),
    DN(___,0,0x000),
    DN(___,0,0x000),
    DN(___,0,0x000),
    DN(___,0,0x000),
    DN(___,0,0x000),
    DN(___,0,0x000),
    DN(___,0,0x000),
    DN(___,0,0x000),
    DN(___,0,0x000),
    DN(___,0,0x000),
    DN(___,0,0x000),
    DN(___,0,0x000),
    DN(___,0,0x000),
    DN(___,1,0x000),
};
static const unsigned char itNoiseSP2[] = {
    DN(___,0,0x000),
    DN(36,0,0x000),
    DN(36,0,0x000),
    DN(36,0,0x000),
    DN(36,0,0x000),
    DN(36,0,0x000),
    DN(36,0,0x000),
    DN(___,0,0x000),
    DN(___,0,0x000),
    DN(___,0,0x000),
    DN(___,0,0x000),
    DN(___,0,0x000),
    DN(___,0,0x000),
    DN(___,0,0x000),
    DN(___,0,0x000),
    DN(___,0,0x000),
    DN(___,0,0x000),
    DN(___,0,0x000),
    DN(___,0,0x000),
    DN(___,0,0x000),
    DN(___,0,0x000),
    DN(___,0,0x000),
    DN(___,0,0x000),
    DN(___,0,0x000),
    DN(___,0,0x000),
    DN(___,0,0x000),
    DN(___,0,0x000),
    DN(___,0,0x000),
    DN(___,0,0x000),
    DN(___,0,0x000),
    DN(___,0,0x000),
    DN(___,1,0x000),
};
static const unsigned char itNoiseSP3[] = {
    DN(___,0,0x000),
    DN(26,0,0x000),
    DN(44,0,0x000),
    DN(44,0,0x000),
    DN(44,0,0x000),
    DN(44,0,0x000),
    DN(44,0,0x000),
    DN(___,0,0x000),
    DN(___,0,0x000),
    DN(___,0,0x000),
    DN(___,0,0x000),
    DN(___,0,0x000),
    DN(___,0,0x000),
    DN(___,0,0x000),
    DN(___,0,0x000),
    DN(___,0,0x000),
    DN(___,0,0x000),
    DN(___,0,0x000),
    DN(___,0,0x000),
    DN(___,0,0x000),
    DN(___,0,0x000),
    DN(___,0,0x000),
    DN(___,0,0x000),
    DN(___,0,0x000),
    DN(___,0,0x000),
    DN(___,0,0x000),
    DN(___,0,0x000),
    DN(___,0,0x000),
    DN(___,0,0x000),
    DN(___,0,0x000),
    DN(___,0,0x000),
    DN(___,1,0x000),
};
static const unsigned char* const order1[] = {P0,P4,P0,P4,P0,P4,P0,P4,P0,P4,P0,P4,P19,P21,P19,P21,P19,P21,P19,P21};
static const unsigned char* const order2[] = {P1,P1,P1,P1,P9,P10,P11,P1,P15,P16,P17,P1,P24,P25,P26,P27,P24,P25,P26,P17};
static const unsigned char* const order3[] = {P1,P1,P1,P1,P5,P6,P7,P1,P12,P13,P14,P1,P18,P20,P22,P23,P18,P20,P22,P8};
static const unsigned char* const order4[] = {P3,P3,P3,P3,P3,P3,P3,P3,P3,P3,P3,P3,P3,P3,P3,P3,P3,P3,P3,P3};

static const hUGEDutyInstr_t duty_instruments[] = {
    {8,128,117,itSquareSP1,128},
    {8,64,242,0,128},
};
static const hUGEWaveInstr_t wave_instruments[] = {
    {0,32,0,0,128},
    {0,32,1,0,128},
};
static const hUGENoiseInstr_t noise_instruments[] = {
    {177,itNoiseSP1,128,0,0},
    {161,itNoiseSP2,0,0,0},
    {178,itNoiseSP3,0,0,0},
};

static const unsigned char waves[] = {
    0,0,255,255,255,255,255,255,255,255,255,255,255,255,255,255,
    0,0,0,0,0,0,0,0,0,0,0,15,255,255,255,255,
};

const hUGESong_t music_which_is_not_i_made = {4, &order_cnt, order1, order2, order3,order4, duty_instruments, wave_instruments, noise_instruments, NULL, waves};
